<svg xmlns="http://www.w3.org/2000/svg" version="1.1" xmlns:xlink="http://www.w3.org/1999/xlink" xmlns:svgjs="http://svgjs.dev/svgjs" width="600" height="300"><svg width="600" height="300" viewBox="0 0 600 300" fill="none" xmlns="http://www.w3.org/2000/svg">
<rect width="600" height="300" fill="white"></rect>
<path d="M68.9631 259V40.8182H155.043C171.52 40.8182 185.582 43.7656 197.23 49.6605C208.949 55.4844 217.862 63.7585 223.97 74.483C230.149 85.1364 233.239 97.6719 233.239 112.089C233.239 126.578 230.114 139.043 223.864 149.483C217.614 159.852 208.558 167.807 196.697 173.347C184.908 178.886 170.632 181.656 153.871 181.656H96.2358V144.582H146.413C155.22 144.582 162.536 143.375 168.359 140.96C174.183 138.545 178.516 134.923 181.357 130.094C184.268 125.264 185.724 119.263 185.724 112.089C185.724 104.845 184.268 98.7372 181.357 93.7656C178.516 88.794 174.148 85.0298 168.253 82.473C162.429 79.8452 155.078 78.5312 146.2 78.5312H115.092V259H68.9631ZM186.79 159.71L241.016 259H190.092L137.038 159.71H186.79Z" fill="#427cb5"></path>
<path d="M220.963 259V40.8182H307.043C323.591 40.8182 337.689 43.9787 349.337 50.2997C360.984 56.5497 369.862 65.25 375.97 76.4006C382.149 87.4801 385.239 100.264 385.239 114.753C385.239 129.241 382.114 142.026 375.864 153.105C369.614 164.185 360.558 172.814 348.697 178.993C336.908 185.172 322.632 188.261 305.871 188.261H251.006V151.294H298.413C307.291 151.294 314.607 149.767 320.359 146.713C326.183 143.588 330.516 139.291 333.357 133.822C336.268 128.283 337.724 121.926 337.724 114.753C337.724 107.509 336.268 101.187 333.357 95.7898C330.516 90.321 326.183 86.0952 320.359 83.1122C314.536 80.0582 307.149 78.5312 298.2 78.5312H267.092V259H220.963Z" fill="#efaf03"></path>
<path d="M489.322 103.567C488.47 94.973 484.813 88.2969 478.349 83.5383C471.886 78.7798 463.115 76.4006 452.036 76.4006C444.507 76.4006 438.151 77.4659 432.966 79.5966C427.781 81.6562 423.804 84.5327 421.034 88.2258C418.335 91.919 416.986 96.1094 416.986 100.797C416.844 104.703 417.661 108.112 419.436 111.024C421.283 113.936 423.804 116.457 427 118.588C430.196 120.648 433.889 122.459 438.08 124.021C442.27 125.513 446.744 126.791 451.503 127.857L471.105 132.544C480.622 134.675 489.358 137.516 497.312 141.067C505.267 144.618 512.156 148.986 517.98 154.17C523.804 159.355 528.314 165.463 531.51 172.494C534.777 179.526 536.446 187.587 536.517 196.678C536.446 210.03 533.037 221.607 526.29 231.408C519.614 241.138 509.955 248.702 497.312 254.099C484.741 259.426 469.578 262.089 451.822 262.089C434.209 262.089 418.868 259.391 405.8 253.993C392.803 248.595 382.646 240.605 375.331 230.023C368.087 219.369 364.287 206.195 363.932 190.499H408.57C409.067 197.814 411.162 203.922 414.855 208.822C418.619 213.652 423.626 217.31 429.876 219.795C436.197 222.21 443.335 223.418 451.29 223.418C459.102 223.418 465.885 222.281 471.638 220.009C477.462 217.736 481.972 214.575 485.168 210.527C488.364 206.479 489.962 201.827 489.962 196.571C489.962 191.67 488.506 187.551 485.594 184.213C482.753 180.875 478.563 178.034 473.023 175.69C467.554 173.347 460.842 171.216 452.888 169.298L429.131 163.332C410.736 158.858 396.212 151.862 385.558 142.345C374.905 132.828 369.614 120.009 369.685 103.886C369.614 90.6761 373.129 79.1349 380.232 69.2628C387.405 59.3906 397.241 51.6847 409.741 46.1449C422.241 40.6051 436.446 37.8352 452.355 37.8352C468.548 37.8352 482.682 40.6051 494.756 46.1449C506.901 51.6847 516.347 59.3906 523.094 69.2628C529.841 79.1349 533.321 90.5696 533.534 103.567H489.322Z" fill="#ed4c46"></path>
</svg><style>@media (prefers-color-scheme: light) { :root { filter: none; } }
@media (prefers-color-scheme: dark) { :root { filter: none; } }
</style></svg>